<?xml version="1.0" standalone="no"?>
<!DOCTYPE svg PUBLIC "-//W3C//DTD SVG 20010904//EN"
 "http://www.w3.org/TR/2001/REC-SVG-20010904/DTD/svg10.dtd">
<svg version="1.0" xmlns="http://www.w3.org/2000/svg"
 width="520.000000pt" height="520.000000pt" viewBox="0 0 520.000000 520.000000"
 preserveAspectRatio="xMidYMid meet">
<metadata>
Created by potrace 1.11, written by Peter Selinger 2001-2013
</metadata>
<g transform="translate(0.000000,520.000000) scale(0.100000,-0.100000)"
fill="#000000" stroke="none">
<path d="M0 2600 l0 -2600 2600 0 2600 0 0 2600 0 2600 -2600 0 -2600 0 0
-2600z m2940 1900 c0 -6 28 -10 65 -10 51 0 65 -3 65 -15 0 -10 11 -15 35 -15
19 0 35 -4 35 -10 0 -5 16 -10 35 -10 19 0 35 -4 35 -10 0 -5 16 -10 35 -10
19 0 35 -4 35 -10 0 -5 20 -10 45 -10 33 0 45 -4 45 -15 0 -8 9 -15 20 -15 11
0 20 -4 20 -10 0 -5 15 -10 33 -10 21 0 38 -7 47 -20 8 -11 25 -20 37 -20 14
0 23 -6 23 -15 0 -8 9 -15 20 -15 11 0 20 -4 20 -10 0 -5 11 -10 25 -10 14 0
25 -4 25 -10 0 -5 9 -10 20 -10 11 0 20 -4 20 -10 0 -5 11 -10 25 -10 14 0 25
-5 25 -11 0 -16 26 -39 44 -39 9 0 16 -4 16 -10 0 -5 5 -10 11 -10 14 0 39
-25 39 -39 0 -6 9 -11 20 -11 11 0 20 -4 20 -10 0 -5 6 -10 13 -10 7 0 19 -9
27 -20 8 -11 22 -20 32 -20 10 0 18 -7 18 -15 0 -8 5 -15 10 -15 14 0 80 -66
80 -80 0 -5 5 -10 10 -10 14 0 80 -66 80 -80 0 -5 5 -10 10 -10 19 0 80 -69
80 -90 0 -11 5 -20 10 -20 17 0 60 -47 60 -65 0 -16 23 -45 35 -45 10 0 35
-28 35 -39 0 -6 5 -11 10 -11 6 0 10 -9 10 -20 0 -11 5 -20 10 -20 6 0 10 -11
10 -25 0 -16 6 -25 15 -25 8 0 15 -8 15 -18 0 -10 9 -24 20 -32 11 -8 20 -25
20 -37 0 -13 5 -23 10 -23 6 0 10 -9 10 -20 0 -11 7 -20 15 -20 9 0 15 -9 15
-25 0 -14 5 -25 10 -25 6 0 10 -9 10 -20 0 -11 5 -20 10 -20 6 0 10 -11 10
-25 0 -14 5 -25 10 -25 6 0 10 -16 10 -35 0 -24 5 -35 15 -35 10 0 15 -10 15
-30 0 -16 5 -30 10 -30 6 0 10 -16 10 -35 0 -19 5 -35 10 -35 6 0 10 -16 10
-35 0 -19 5 -35 10 -35 6 0 10 -20 10 -45 0 -33 4 -45 15 -45 12 0 15 -14 15
-65 0 -37 4 -65 10 -65 6 0 10 -60 10 -160 0 -100 4 -160 10 -160 6 0 10 -82
10 -225 0 -143 -4 -225 -10 -225 -5 0 -10 -20 -10 -45 0 -25 -4 -45 -10 -45
-5 0 -10 -11 -10 -25 0 -16 -6 -25 -15 -25 -8 0 -15 -8 -15 -18 0 -10 -9 -24
-20 -32 -11 -8 -20 -20 -20 -27 0 -7 -10 -13 -23 -13 -12 0 -29 -9 -37 -20 -8
-11 -22 -20 -32 -20 -10 0 -18 -4 -18 -10 0 -5 -11 -10 -25 -10 -16 0 -25 -6
-25 -15 0 -8 -4 -15 -10 -15 -6 0 -10 -32 -10 -75 0 -43 -4 -75 -10 -75 -5 0
-10 -20 -10 -45 0 -33 -4 -45 -15 -45 -10 0 -15 -11 -15 -35 0 -19 -4 -35 -10
-35 -5 0 -10 -10 -10 -23 0 -12 -9 -29 -20 -37 -11 -8 -20 -22 -20 -32 0 -10
-7 -18 -15 -18 -9 0 -15 -9 -15 -25 0 -14 -4 -25 -10 -25 -5 0 -10 -9 -10 -20
0 -11 -4 -20 -10 -20 -5 0 -10 -5 -10 -11 0 -11 -25 -39 -35 -39 -8 0 -55 -47
-55 -55 0 -8 -27 -35 -35 -35 -10 0 -55 -48 -55 -60 0 -5 -10 -10 -23 -10 -12
0 -29 -9 -37 -20 -8 -11 -22 -20 -32 -20 -10 0 -18 -4 -18 -10 0 -5 -11 -10
-25 -10 -16 0 -25 -6 -25 -15 0 -8 -9 -15 -20 -15 -11 0 -20 -4 -20 -10 0 -5
-11 -10 -25 -10 -14 0 -25 -4 -25 -10 0 -5 -16 -10 -35 -10 -19 0 -35 -4 -35
-10 0 -5 -13 -10 -30 -10 -20 0 -30 -5 -30 -15 0 -13 -34 -15 -250 -15 -216 0
-250 2 -250 15 0 8 -9 15 -20 15 -11 0 -20 5 -20 10 0 6 -5 10 -10 10 -14 0
-60 46 -60 60 0 5 -4 10 -10 10 -7 0 -10 283 -10 830 0 547 3 830 10 830 6 0
10 9 10 20 0 22 41 70 60 70 5 0 10 5 10 11 0 20 29 39 59 39 17 0 31 5 31 10
0 6 55 10 145 10 90 0 145 -4 145 -10 0 -6 37 -10 90 -10 53 0 90 -4 90 -10 0
-5 16 -10 35 -10 24 0 35 -5 35 -15 0 -8 9 -15 20 -15 11 0 20 -4 20 -10 0 -5
16 -10 35 -10 19 0 35 -4 35 -10 0 -5 9 -10 20 -10 11 0 20 -7 20 -15 0 -9 9
-15 25 -15 14 0 25 -4 25 -10 0 -5 9 -10 20 -10 11 0 20 -4 20 -10 0 -5 5 -10
11 -10 11 0 39 -25 39 -35 0 -10 48 -55 60 -55 6 0 10 31 10 80 0 64 -3 80
-15 80 -10 0 -15 11 -15 35 0 19 -4 35 -10 35 -5 0 -10 25 -10 55 0 30 -4 55
-10 55 -5 0 -10 20 -10 45 0 25 -4 45 -10 45 -5 0 -10 20 -10 45 0 33 -4 45
-15 45 -8 0 -15 9 -15 20 0 11 -4 20 -10 20 -5 0 -10 16 -10 35 0 19 -4 35
-10 35 -5 0 -10 11 -10 25 0 14 -4 25 -10 25 -5 0 -10 9 -10 20 0 11 -5 20
-11 20 -17 0 -39 27 -39 49 0 12 -4 21 -10 21 -5 0 -10 9 -10 20 0 11 -4 20
-10 20 -5 0 -10 7 -10 15 0 8 -7 15 -15 15 -8 0 -15 8 -15 18 0 10 -9 24 -20
32 -11 8 -20 18 -20 23 0 12 -27 37 -39 37 -6 0 -11 9 -11 20 0 11 -4 20 -10
20 -5 0 -10 5 -10 10 0 12 -45 60 -55 60 -8 0 -35 27 -35 35 0 8 -47 55 -55
55 -10 0 -35 28 -35 39 0 6 -9 11 -20 11 -11 0 -20 5 -20 10 0 6 -6 10 -13 10
-7 0 -19 9 -27 20 -8 11 -22 20 -32 20 -10 0 -18 7 -18 15 0 8 -7 15 -15 15
-8 0 -15 5 -15 10 0 6 -8 10 -18 10 -10 0 -24 9 -32 20 -8 11 -25 20 -37 20
-14 0 -23 6 -23 15 0 8 -9 15 -20 15 -11 0 -20 5 -20 10 0 6 -11 10 -25 10
-14 0 -25 5 -25 10 0 6 -9 10 -20 10 -11 0 -20 5 -20 10 0 6 -16 10 -35 10
-24 0 -35 5 -35 15 0 10 -11 15 -35 15 -19 0 -35 5 -35 10 0 6 -20 10 -45 10
-25 0 -45 5 -45 10 0 6 -25 10 -55 10 -30 0 -55 5 -55 10 0 6 -20 10 -45 10
-33 0 -45 4 -45 15 0 13 -27 15 -180 15 -153 0 -180 -2 -180 -15 0 -12 -13
-15 -55 -15 -30 0 -55 -4 -55 -10 0 -5 -20 -10 -45 -10 -25 0 -45 -4 -45 -10
0 -5 -20 -10 -45 -10 -25 0 -45 -4 -45 -10 0 -5 -16 -10 -35 -10 -24 0 -35 -5
-35 -15 0 -10 -11 -15 -35 -15 -19 0 -35 -4 -35 -10 0 -5 -9 -10 -20 -10 -11
0 -20 -4 -20 -10 0 -5 -11 -10 -25 -10 -14 0 -25 -4 -25 -10 0 -5 -9 -10 -20
-10 -11 0 -20 -7 -20 -15 0 -9 -9 -15 -25 -15 -14 0 -25 -4 -25 -10 0 -5 -9
-10 -20 -10 -11 0 -20 -4 -20 -10 0 -5 -7 -10 -15 -10 -8 0 -15 -4 -15 -10 0
-5 -9 -10 -20 -10 -11 0 -20 -5 -20 -11 0 -14 -25 -39 -39 -39 -6 0 -11 -4
-11 -10 0 -5 -7 -10 -16 -10 -18 0 -44 -23 -44 -39 0 -6 -5 -11 -11 -11 -6 0
-24 -13 -39 -30 -15 -16 -37 -30 -49 -30 -12 0 -21 -6 -21 -15 0 -8 -4 -15
-10 -15 -5 0 -10 -8 -10 -18 0 -10 -9 -24 -20 -32 -11 -8 -20 -20 -20 -27 0
-7 -5 -13 -10 -13 -19 0 -80 -69 -80 -90 0 -11 -5 -20 -10 -20 -19 0 -60 -48
-60 -70 0 -11 -4 -20 -10 -20 -5 0 -10 -9 -10 -20 0 -11 -7 -20 -15 -20 -8 0
-15 -7 -15 -15 0 -8 -4 -15 -10 -15 -5 0 -10 -9 -10 -20 0 -11 -4 -20 -10 -20
-5 0 -10 -11 -10 -25 0 -14 -4 -25 -10 -25 -5 0 -10 -9 -10 -20 0 -11 -7 -20
-15 -20 -10 0 -15 -11 -15 -35 0 -19 -4 -35 -10 -35 -5 0 -10 -9 -10 -20 0
-11 -4 -20 -10 -20 -5 0 -10 -16 -10 -35 0 -19 -4 -35 -10 -35 -5 0 -10 -20
-10 -45 0 -33 -4 -45 -15 -45 -12 0 -15 -14 -15 -70 0 -40 -4 -70 -10 -70 -6
0 -10 -40 -10 -100 0 -60 4 -100 10 -100 6 0 10 5 10 10 0 6 5 10 11 10 11 0
39 25 39 35 0 15 51 55 70 55 11 0 20 5 20 10 0 6 9 10 20 10 11 0 20 7 20 15
0 9 9 15 25 15 14 0 25 5 25 10 0 6 9 10 20 10 11 0 20 5 20 10 0 6 16 10 35
10 24 0 35 5 35 15 0 10 11 15 35 15 19 0 35 5 35 10 0 6 37 10 90 10 53 0 90
4 90 10 0 6 55 10 145 10 90 0 145 -4 145 -10 0 -5 14 -10 31 -10 27 0 59 -19
59 -35 0 -10 28 -35 39 -35 6 0 11 -11 11 -25 0 -14 5 -25 10 -25 7 0 10 -287
10 -840 0 -553 -3 -840 -10 -840 -5 0 -10 -11 -10 -25 0 -16 -6 -25 -15 -25
-8 0 -15 -4 -15 -10 0 -5 -7 -10 -16 -10 -18 0 -44 -23 -44 -39 0 -8 -79 -11
-250 -11 -216 0 -250 2 -250 15 0 10 -11 15 -35 15 -19 0 -35 5 -35 10 0 6
-13 10 -30 10 -16 0 -30 5 -30 10 0 6 -14 10 -31 10 -30 0 -59 19 -59 39 0 6
-16 11 -35 11 -19 0 -35 5 -35 10 0 6 -9 10 -20 10 -19 0 -70 40 -70 55 0 13
-29 35 -45 35 -18 0 -65 43 -65 60 0 5 -5 10 -11 10 -16 0 -39 26 -39 44 0 9
-4 16 -10 16 -5 0 -10 5 -10 11 0 14 -25 39 -39 39 -6 0 -11 9 -11 20 0 11 -4
20 -10 20 -5 0 -10 7 -10 15 0 8 -4 15 -10 15 -5 0 -10 9 -10 20 0 11 -4 20
-10 20 -5 0 -10 11 -10 25 0 16 -6 25 -15 25 -10 0 -15 10 -15 30 0 17 -4 30
-10 30 -5 0 -10 16 -10 35 0 19 -4 35 -10 35 -5 0 -10 11 -10 25 0 14 -4 25
-10 25 -6 0 -10 37 -10 90 0 89 0 90 -25 90 -14 0 -25 5 -25 10 0 6 -9 10 -20
10 -11 0 -20 5 -20 10 0 6 -9 10 -21 10 -22 0 -49 22 -49 39 0 6 -11 11 -25
11 -18 0 -25 5 -25 20 0 11 -4 20 -10 20 -5 0 -10 11 -10 25 0 14 -4 25 -10
25 -5 0 -10 9 -10 20 0 11 -4 20 -10 20 -5 0 -10 16 -10 35 0 24 -5 35 -15 35
-13 0 -15 31 -15 215 0 184 2 215 15 215 13 0 15 21 15 125 0 77 4 125 10 125
6 0 10 28 10 65 0 37 4 65 10 65 6 0 10 30 10 70 0 40 4 70 10 70 6 0 10 20
10 45 0 33 4 45 15 45 11 0 15 12 15 45 0 25 5 45 10 45 6 0 10 9 10 20 0 11
5 20 10 20 6 0 10 16 10 35 0 19 5 35 10 35 6 0 10 9 10 20 0 11 7 20 15 20 9
0 15 9 15 25 0 14 5 25 10 25 6 0 10 9 10 20 0 11 5 20 10 20 6 0 10 14 10 31
0 30 19 59 39 59 6 0 11 7 11 15 0 8 5 15 10 15 6 0 10 9 10 20 0 11 5 20 10
20 6 0 10 11 10 25 0 14 5 25 10 25 6 0 10 9 10 20 0 11 5 20 11 20 16 0 39
26 39 45 0 18 43 65 60 65 5 0 10 7 10 15 0 8 5 15 10 15 6 0 10 8 10 18 0 10
9 24 20 32 11 8 20 20 20 27 0 7 5 13 10 13 14 0 80 66 80 80 0 5 5 10 10 10
14 0 80 66 80 80 0 5 5 10 10 10 14 0 80 66 80 80 0 5 7 10 15 10 8 0 15 5 15
10 0 6 8 10 18 10 10 0 24 9 32 20 8 11 20 20 27 20 7 0 13 7 13 15 0 8 8 15
18 15 10 0 24 9 32 20 8 11 23 20 33 20 20 0 47 22 47 39 0 6 11 11 25 11 14
0 25 5 25 10 0 6 8 10 18 10 10 0 24 9 32 20 9 13 26 20 47 20 23 0 33 5 33
15 0 9 9 15 23 15 12 0 29 9 37 20 9 13 26 20 47 20 18 0 33 5 33 10 0 6 9 10
20 10 11 0 20 7 20 15 0 11 12 15 45 15 25 0 45 5 45 10 0 6 16 10 35 10 19 0
35 5 35 10 0 6 16 10 35 10 19 0 35 5 35 10 0 6 14 10 30 10 20 0 30 5 30 15
0 12 14 15 70 15 40 0 70 4 70 10 0 6 127 10 360 10 233 0 360 -4 360 -10z"/>
</g>
</svg>
